<mxfile host="app.diagrams.net" modified="2021-08-28T10:32:30.934Z" agent="5.0 (Windows NT 10.0; Win64; x64) AppleWebKit/537.36 (KHTML, like Gecko) Chrome/92.0.4515.159 Safari/537.36" etag="Y3-H2BC5X6jdIi58QTfG" version="15.0.2" type="github">
  <diagram id="f0EUR8hpDYs2t58h3enQ" name="Page-1">
    <mxGraphModel dx="1422" dy="800" grid="1" gridSize="10" guides="1" tooltips="1" connect="1" arrows="1" fold="1" page="1" pageScale="1" pageWidth="827" pageHeight="1169" math="0" shadow="0">
      <root>
        <mxCell id="0" />
        <mxCell id="1" parent="0" />
        <mxCell id="33NDamx2ghCX8gkITOr0-1" value="" style="endArrow=classic;html=1;" parent="1" edge="1">
          <mxGeometry width="50" height="50" relative="1" as="geometry">
            <mxPoint x="40" y="80" as="sourcePoint" />
            <mxPoint x="880" y="80" as="targetPoint" />
          </mxGeometry>
        </mxCell>
        <mxCell id="33NDamx2ghCX8gkITOr0-2" value="CheongWa/main" style="text;html=1;strokeColor=none;fillColor=none;align=left;verticalAlign=middle;whiteSpace=wrap;rounded=0;fontStyle=1;fontSize=18;" parent="1" vertex="1">
          <mxGeometry x="41" y="50" width="250" height="20" as="geometry" />
        </mxCell>
        <mxCell id="33NDamx2ghCX8gkITOr0-5" value="" style="endArrow=classic;html=1;" parent="1" edge="1">
          <mxGeometry width="50" height="50" relative="1" as="geometry">
            <mxPoint x="40" y="300" as="sourcePoint" />
            <mxPoint x="120" y="300" as="targetPoint" />
          </mxGeometry>
        </mxCell>
        <mxCell id="33NDamx2ghCX8gkITOr0-6" value="CheonWa/main(remote)" style="text;html=1;strokeColor=none;fillColor=none;align=left;verticalAlign=middle;whiteSpace=wrap;rounded=0;fontStyle=1;fontSize=18;" parent="1" vertex="1">
          <mxGeometry x="40" y="270" width="130" height="20" as="geometry" />
        </mxCell>
        <mxCell id="33NDamx2ghCX8gkITOr0-8" value="" style="endArrow=classic;html=1;" parent="1" edge="1">
          <mxGeometry width="50" height="50" relative="1" as="geometry">
            <mxPoint x="120" y="300" as="sourcePoint" />
            <mxPoint x="160" y="400" as="targetPoint" />
          </mxGeometry>
        </mxCell>
        <mxCell id="33NDamx2ghCX8gkITOr0-9" value="&lt;font style=&quot;font-size: 16px&quot;&gt;CheonWa&lt;/font&gt;/myBranch" style="text;html=1;strokeColor=none;fillColor=none;align=left;verticalAlign=middle;whiteSpace=wrap;rounded=0;fontStyle=1;fontSize=15;" parent="1" vertex="1">
          <mxGeometry x="100" y="405" width="130" height="20" as="geometry" />
        </mxCell>
        <mxCell id="33NDamx2ghCX8gkITOr0-10" value="" style="endArrow=classic;html=1;" parent="1" edge="1">
          <mxGeometry width="50" height="50" relative="1" as="geometry">
            <mxPoint x="160" y="400" as="sourcePoint" />
            <mxPoint x="360" y="400" as="targetPoint" />
          </mxGeometry>
        </mxCell>
        <mxCell id="33NDamx2ghCX8gkITOr0-13" value="Issue #1" style="shape=note;whiteSpace=wrap;html=1;backgroundOutline=1;darkOpacity=0.05;align=center;fontStyle=1;fontSize=15;size=13;fillColor=#d5e8d4;strokeColor=#82b366;" parent="1" vertex="1">
          <mxGeometry x="320" y="120" width="70" height="70" as="geometry" />
        </mxCell>
        <mxCell id="33NDamx2ghCX8gkITOr0-15" value="" style="endArrow=none;html=1;fontSize=15;exitX=0.5;exitY=0;exitDx=0;exitDy=0;exitPerimeter=0;" parent="1" source="33NDamx2ghCX8gkITOr0-13" edge="1">
          <mxGeometry width="50" height="50" relative="1" as="geometry">
            <mxPoint x="340" y="260" as="sourcePoint" />
            <mxPoint x="355" y="80" as="targetPoint" />
          </mxGeometry>
        </mxCell>
        <mxCell id="33NDamx2ghCX8gkITOr0-17" value="" style="endArrow=classic;html=1;entryX=0.575;entryY=1.001;entryDx=0;entryDy=0;entryPerimeter=0;" parent="1" target="33NDamx2ghCX8gkITOr0-13" edge="1">
          <mxGeometry width="50" height="50" relative="1" as="geometry">
            <mxPoint x="360" y="400" as="sourcePoint" />
            <mxPoint x="320" y="190" as="targetPoint" />
          </mxGeometry>
        </mxCell>
        <mxCell id="33NDamx2ghCX8gkITOr0-27" value="Add, Commit, Push" style="shape=callout;whiteSpace=wrap;html=1;perimeter=calloutPerimeter;fontSize=15;align=center;position2=0.62;size=30;position=0.5;rotation=0;direction=west;rounded=1;fontStyle=1;base=25;strokeWidth=1;perimeterSpacing=0;fillColor=#fff2cc;strokeColor=#d6b656;" parent="1" vertex="1">
          <mxGeometry x="240" y="400" width="150" height="70" as="geometry" />
        </mxCell>
        <mxCell id="33NDamx2ghCX8gkITOr0-32" value="" style="endArrow=none;html=1;endFill=0;dashed=1;" parent="1" edge="1">
          <mxGeometry width="50" height="50" relative="1" as="geometry">
            <mxPoint x="120" y="300" as="sourcePoint" />
            <mxPoint x="720" y="300" as="targetPoint" />
          </mxGeometry>
        </mxCell>
        <mxCell id="33NDamx2ghCX8gkITOr0-38" value="" style="endArrow=classic;html=1;" parent="1" edge="1">
          <mxGeometry width="50" height="50" relative="1" as="geometry">
            <mxPoint x="720" y="300" as="sourcePoint" />
            <mxPoint x="880" y="300" as="targetPoint" />
          </mxGeometry>
        </mxCell>
        <mxCell id="33NDamx2ghCX8gkITOr0-40" value="" style="edgeStyle=segmentEdgeStyle;endArrow=classic;html=1;exitX=0;exitY=0;exitDx=70;exitDy=41.5;exitPerimeter=0;" parent="1" source="33NDamx2ghCX8gkITOr0-13" edge="1">
          <mxGeometry width="50" height="50" relative="1" as="geometry">
            <mxPoint x="410" y="160" as="sourcePoint" />
            <mxPoint x="460" y="80" as="targetPoint" />
          </mxGeometry>
        </mxCell>
        <mxCell id="33NDamx2ghCX8gkITOr0-41" value="Close Issue &amp;amp; Merge" style="shape=callout;whiteSpace=wrap;html=1;perimeter=calloutPerimeter;fontSize=15;align=center;position2=0.5;size=30;position=0.25;rotation=0;direction=south;base=20;fontStyle=1;rounded=1;fillColor=#fff2cc;strokeColor=#d6b656;" parent="1" vertex="1">
          <mxGeometry x="460" y="105" width="190" height="50" as="geometry" />
        </mxCell>
        <mxCell id="33NDamx2ghCX8gkITOr0-55" value="" style="curved=1;endArrow=classic;html=1;entryX=0.054;entryY=-0.2;entryDx=0;entryDy=0;entryPerimeter=0;" parent="1" target="33NDamx2ghCX8gkITOr0-6" edge="1">
          <mxGeometry width="50" height="50" relative="1" as="geometry">
            <mxPoint x="40" y="80" as="sourcePoint" />
            <mxPoint x="70" y="170" as="targetPoint" />
            <Array as="points">
              <mxPoint x="70" y="120" />
              <mxPoint x="30" y="210" />
            </Array>
          </mxGeometry>
        </mxCell>
        <mxCell id="33NDamx2ghCX8gkITOr0-65" value="" style="endArrow=classic;html=1;fontSize=18;fontColor=#007FFF;" parent="1" edge="1">
          <mxGeometry width="50" height="50" relative="1" as="geometry">
            <mxPoint x="360" y="400" as="sourcePoint" />
            <mxPoint x="400" y="400" as="targetPoint" />
          </mxGeometry>
        </mxCell>
        <mxCell id="33NDamx2ghCX8gkITOr0-67" value="" style="endArrow=none;html=1;fontSize=18;fontColor=#007FFF;" parent="1" edge="1">
          <mxGeometry width="50" height="50" relative="1" as="geometry">
            <mxPoint x="394" y="390" as="sourcePoint" />
            <mxPoint x="414" y="410" as="targetPoint" />
          </mxGeometry>
        </mxCell>
        <mxCell id="33NDamx2ghCX8gkITOr0-68" value="" style="endArrow=none;html=1;fontSize=18;fontColor=#007FFF;" parent="1" edge="1">
          <mxGeometry width="50" height="50" relative="1" as="geometry">
            <mxPoint x="414" y="390" as="sourcePoint" />
            <mxPoint x="394" y="410" as="targetPoint" />
          </mxGeometry>
        </mxCell>
        <mxCell id="33NDamx2ghCX8gkITOr0-77" value="" style="curved=1;endArrow=classic;html=1;fontSize=18;fontColor=#007FFF;exitX=0.98;exitY=0.189;exitDx=0;exitDy=0;exitPerimeter=0;" parent="1" edge="1" source="33NDamx2ghCX8gkITOr0-41">
          <mxGeometry width="50" height="50" relative="1" as="geometry">
            <mxPoint x="520" y="370" as="sourcePoint" />
            <mxPoint x="410" y="400" as="targetPoint" />
            <Array as="points">
              <mxPoint x="620" y="280" />
              <mxPoint x="540" y="380" />
            </Array>
          </mxGeometry>
        </mxCell>
        <mxCell id="33NDamx2ghCX8gkITOr0-78" value="Delete Branch" style="shape=callout;whiteSpace=wrap;html=1;perimeter=calloutPerimeter;fontSize=15;align=center;position2=0;size=30;position=0.25;rotation=0;direction=north;base=20;fontStyle=1;rounded=1;fillColor=#fff2cc;strokeColor=#d6b656;" parent="1" vertex="1">
          <mxGeometry x="440" y="260" width="160" height="30" as="geometry" />
        </mxCell>
        <mxCell id="33NDamx2ghCX8gkITOr0-82" value="Clone" style="shape=callout;whiteSpace=wrap;html=1;perimeter=calloutPerimeter;fontSize=15;align=center;position2=0.86;size=30;position=0.25;rotation=0;direction=south;base=11;fontStyle=1;rounded=1;fillColor=#fff2cc;strokeColor=#d6b656;" parent="1" vertex="1">
          <mxGeometry x="55" y="120" width="100" height="35" as="geometry" />
        </mxCell>
        <mxCell id="33NDamx2ghCX8gkITOr0-83" value="Pull Request" style="shape=callout;whiteSpace=wrap;html=1;perimeter=calloutPerimeter;fontSize=15;align=center;position2=0;size=30;position=0.25;rotation=0;direction=north;base=20;fontStyle=1;rounded=1;fillColor=#fff2cc;strokeColor=#d6b656;" parent="1" vertex="1">
          <mxGeometry x="210" y="215" width="150" height="30" as="geometry" />
        </mxCell>
        <mxCell id="33NDamx2ghCX8gkITOr0-86" value="2" style="ellipse;whiteSpace=wrap;html=1;aspect=fixed;rounded=1;sketch=0;fontSize=24;strokeWidth=1;fillColor=#f8cecc;strokeColor=#b85450;fontStyle=1;" parent="1" vertex="1">
          <mxGeometry y="117.5" width="40" height="40" as="geometry" />
        </mxCell>
        <mxCell id="33NDamx2ghCX8gkITOr0-89" value="4" style="ellipse;whiteSpace=wrap;html=1;aspect=fixed;rounded=1;sketch=0;fontSize=24;strokeWidth=1;fillColor=#f8cecc;strokeColor=#b85450;fontStyle=1;" parent="1" vertex="1">
          <mxGeometry x="55" y="395" width="40" height="40" as="geometry" />
        </mxCell>
        <mxCell id="33NDamx2ghCX8gkITOr0-95" value="5" style="ellipse;whiteSpace=wrap;html=1;aspect=fixed;rounded=1;sketch=0;fontSize=24;strokeWidth=1;fillColor=#f8cecc;strokeColor=#b85450;fontStyle=1;" parent="1" vertex="1">
          <mxGeometry x="190" y="430" width="40" height="40" as="geometry" />
        </mxCell>
        <mxCell id="33NDamx2ghCX8gkITOr0-96" value="3" style="ellipse;whiteSpace=wrap;html=1;aspect=fixed;rounded=1;sketch=0;fontSize=24;strokeWidth=1;fillColor=#f8cecc;strokeColor=#b85450;fontStyle=1;" parent="1" vertex="1">
          <mxGeometry x="260" y="120" width="40" height="40" as="geometry" />
        </mxCell>
        <mxCell id="33NDamx2ghCX8gkITOr0-98" value="7" style="ellipse;whiteSpace=wrap;html=1;aspect=fixed;rounded=1;sketch=0;fontSize=24;strokeWidth=1;fillColor=#f8cecc;strokeColor=#b85450;fontStyle=1;" parent="1" vertex="1">
          <mxGeometry x="570" y="160" width="40" height="40" as="geometry" />
        </mxCell>
        <mxCell id="33NDamx2ghCX8gkITOr0-99" value="8" style="ellipse;whiteSpace=wrap;html=1;aspect=fixed;rounded=1;sketch=0;fontSize=24;strokeWidth=1;fillColor=#f8cecc;strokeColor=#b85450;fontStyle=1;" parent="1" vertex="1">
          <mxGeometry x="390" y="250" width="40" height="40" as="geometry" />
        </mxCell>
        <mxCell id="33NDamx2ghCX8gkITOr0-101" value="9" style="ellipse;whiteSpace=wrap;html=1;aspect=fixed;rounded=1;sketch=0;fontSize=24;strokeWidth=1;fillColor=#f8cecc;strokeColor=#b85450;fontStyle=1;" parent="1" vertex="1">
          <mxGeometry x="700" y="120" width="40" height="40" as="geometry" />
        </mxCell>
        <mxCell id="K64R6NHA_pVNjG5_QZOd-4" value="" style="endArrow=none;html=1;strokeWidth=2;fillColor=#f8cecc;strokeColor=#b85450;shape=link;" parent="1" edge="1">
          <mxGeometry width="50" height="50" relative="1" as="geometry">
            <mxPoint x="827" y="320" as="sourcePoint" />
            <mxPoint x="827" y="40" as="targetPoint" />
          </mxGeometry>
        </mxCell>
        <mxCell id="K64R6NHA_pVNjG5_QZOd-5" value="Latest" style="text;html=1;strokeColor=none;fillColor=none;align=left;verticalAlign=middle;whiteSpace=wrap;rounded=0;fontStyle=1;fontSize=18;" parent="1" vertex="1">
          <mxGeometry x="830" y="40" width="60" height="20" as="geometry" />
        </mxCell>
        <mxCell id="K64R6NHA_pVNjG5_QZOd-6" value="Pull" style="shape=callout;whiteSpace=wrap;html=1;perimeter=calloutPerimeter;fontSize=15;align=center;position2=0.33;size=30;position=0.25;rotation=0;direction=south;base=20;fontStyle=1;rounded=1;fillColor=#fff2cc;strokeColor=#d6b656;" parent="1" vertex="1">
          <mxGeometry x="700" y="175" width="90" height="30" as="geometry" />
        </mxCell>
        <mxCell id="L_morTcrQ96N_-EQYDA7-4" value="6" style="ellipse;whiteSpace=wrap;html=1;aspect=fixed;rounded=1;sketch=0;fontSize=24;strokeWidth=1;fillColor=#f8cecc;strokeColor=#b85450;fontStyle=1;" vertex="1" parent="1">
          <mxGeometry x="160" y="205" width="40" height="40" as="geometry" />
        </mxCell>
        <mxCell id="L_morTcrQ96N_-EQYDA7-5" value="" style="endArrow=classic;html=1;" edge="1" parent="1">
          <mxGeometry width="50" height="50" relative="1" as="geometry">
            <mxPoint x="680" y="80" as="sourcePoint" />
            <mxPoint x="720" y="300" as="targetPoint" />
          </mxGeometry>
        </mxCell>
      </root>
    </mxGraphModel>
  </diagram>
</mxfile>
